<svg width="15" height="14" viewBox="0 0 15 14" fill="none" xmlns="http://www.w3.org/2000/svg">
<path d="M7.5 0.875C3.87598 0.875 0.9375 3.61758 0.9375 7C0.9375 10.3824 3.87598 13.125 7.5 13.125C11.124 13.125 14.0625 10.3824 14.0625 7C14.0625 3.61758 11.124 0.875 7.5 0.875ZM9.61084 7.09434L6.41162 9.2668C6.39408 9.27856 6.37341 9.28558 6.35187 9.28709C6.33033 9.2886 6.30877 9.28454 6.28954 9.27536C6.27032 9.26618 6.25417 9.25222 6.24289 9.23503C6.23161 9.21785 6.22562 9.19809 6.22559 9.17793V4.83574C6.22551 4.81554 6.23144 4.79572 6.2427 4.77847C6.25396 4.76122 6.27012 4.74722 6.28938 4.73802C6.30865 4.72882 6.33026 4.72477 6.35184 4.72634C6.37342 4.7279 6.39411 4.73501 6.41162 4.74688L9.61084 6.91797C9.62595 6.92795 9.63828 6.94116 9.64679 6.9565C9.6553 6.97185 9.65974 6.98887 9.65974 7.00615C9.65974 7.02343 9.6553 7.04046 9.64679 7.0558C9.63828 7.07114 9.62595 7.08436 9.61084 7.09434Z" fill="#9AA0B6"/>
</svg>
