<svg width="13" height="13" viewBox="0 0 13 13" fill="none" xmlns="http://www.w3.org/2000/svg">
<path d="M1.35416 5.6875C0.60775 5.6875 0 6.29525 0 7.04166V11.375C0 12.1214 0.60775 12.7292 1.35416 12.7292H2.97916C3.28413 12.7292 3.56469 12.6262 3.79166 12.4551V5.6875H1.35416Z" fill="#9AA0B6"/>
<path d="M12.9987 7.71875C12.9987 7.39322 12.8698 7.08988 12.6461 6.86616C12.899 6.58938 13.0279 6.21832 12.9927 5.83213C12.9293 5.14366 12.3091 4.60416 11.5801 4.60416H8.23419C8.39994 4.10094 8.66535 3.1785 8.66535 2.4375C8.66535 1.26263 7.66706 0.270844 7.04035 0.270844C6.47756 0.270844 6.07563 0.587719 6.05831 0.600719C5.99441 0.652185 5.95703 0.730185 5.95703 0.812502V2.64929L4.39703 6.02875L4.33203 6.06179V11.8674C4.77294 12.0754 5.33085 12.1875 5.68619 12.1875H10.6582C11.248 12.1875 11.7642 11.7899 11.8856 11.2412C11.9478 10.959 11.9116 10.6746 11.7875 10.4276C12.1878 10.2261 12.457 9.81391 12.457 9.34375C12.457 9.152 12.4132 8.96838 12.3297 8.80209C12.73 8.60059 12.9987 8.18838 12.9987 7.71875Z" fill="#9AA0B6"/>
</svg>
