<svg width="11" height="12" viewBox="0 0 11 12" fill="none" xmlns="http://www.w3.org/2000/svg">
<path d="M0.75 6C0.75 6.96483 1.53517 7.75 2.5 7.75C2.96317 7.75 3.382 7.56625 3.69525 7.27167L7.19 9.269C7.1795 9.34483 7.16667 9.42067 7.16667 9.5C7.16667 10.4648 7.95183 11.25 8.91667 11.25C9.8815 11.25 10.6667 10.4648 10.6667 9.5C10.6667 8.53517 9.8815 7.75 8.91667 7.75C8.4535 7.75 8.03467 7.93375 7.72142 8.22833L4.22667 6.23158C4.23717 6.15517 4.25 6.07933 4.25 6C4.25 5.92067 4.23717 5.84483 4.22667 5.76842L7.72142 3.77167C8.03467 4.06625 8.4535 4.25 8.91667 4.25C9.8815 4.25 10.6667 3.46483 10.6667 2.5C10.6667 1.53517 9.8815 0.75 8.91667 0.75C7.95183 0.75 7.16667 1.53517 7.16667 2.5C7.16667 2.57933 7.1795 2.65517 7.19 2.73158L3.69525 4.72833C3.37267 4.4219 2.94493 4.25072 2.5 4.25C1.53517 4.25 0.75 5.03517 0.75 6Z" fill="#4C505F"/>
</svg>
