<svg width="30" height="30" viewBox="0 0 30 30" fill="none" xmlns="http://www.w3.org/2000/svg">
<path d="M7.50002 5.99997C9.1575 5.99997 10.5 4.6575 10.5 2.99995C10.5 1.34248 9.1575 0 7.50002 0C5.84255 0 4.5 1.34248 4.5 3.00002C4.5 4.6575 5.84248 5.99997 7.50002 5.99997Z" fill="#C9D4E0"/>
<path d="M21 5.99997C22.6575 5.99997 24 4.6575 24 2.99995C24 1.34248 22.6575 0 21 0C19.3425 0 18 1.34248 18 3.00002C18 4.6575 19.3425 5.99997 21 5.99997Z" fill="#C9D4E0"/>
<path d="M9.75002 7.5H5.25002C3.6 7.5 2.25 8.85 2.25 10.5V18.7499H4.5V29.9999H10.5V18.7499H12.75V10.5C12.75 8.85 11.4 7.5 9.75002 7.5Z" fill="#C9D4E0"/>
<path d="M23.9325 9.55496C23.5275 8.32499 22.38 7.49994 21.09 7.49994H20.9175C19.6275 7.49994 18.48 8.32492 18.075 9.55496L14.25 20.9999H18.75V29.9999H23.25V20.9999H27.75L23.9325 9.55496Z" fill="#C9D4E0"/>
</svg>
